<?xml version="1.0" encoding="utf-8"?>
<!-- Generator: Adobe Illustrator 24.3.0, SVG Export Plug-In . SVG Version: 6.00 Build 0)  -->
<svg version="1.1" xmlns="http://www.w3.org/2000/svg" xmlns:xlink="http://www.w3.org/1999/xlink" x="0px" y="0px"
	 viewBox="0 0 235.85 500" style="enable-background:new 0 0 235.85 500;" xml:space="preserve">
<style type="text/css">
	.st0{fill:#FFFAF3;}
	.st1{fill:#E6C293;}
	.st2{fill:#FFF0D9;}
	.st3{fill:#FFFFFF;}
	.st4{fill:#8A232F;}
	.st5{fill:#B87F4B;}
	.st6{fill:#CF8E54;}
	.st7{fill:#A16F43;}
	.st8{opacity:0.5;fill:#7F7F7F;}
	.st9{fill:#6E1E27;}
	.st10{opacity:0.5;fill:#8A232F;}
	.st11{fill:#581A21;}
	.st12{fill:#58886B;}
	.st13{clip-path:url(#SVGID_2_);fill:none;stroke:#8A232F;stroke-width:4.7744;stroke-miterlimit:10;}
	.st14{opacity:0.5;fill:#426650;}
	.st15{clip-path:url(#SVGID_4_);}
	.st16{opacity:0.7;fill:#CF8E54;}
	.st17{clip-path:url(#SVGID_6_);}
	.st18{opacity:0.5;fill:#CF8E54;}
	.st19{fill:#452516;}
	.st20{opacity:0.5;fill:#452516;}
	.st21{fill:#1F3633;}
	.st22{fill:#213B37;}
	.st23{fill:#274540;}
	.st24{fill:#294943;}
	.st25{opacity:0.4;clip-path:url(#SVGID_8_);fill:#274540;}
	.st26{fill:#30554E;}
	.st27{fill:#335952;}
	.st28{opacity:0.4;clip-path:url(#SVGID_10_);fill:#30554E;}
	.st29{fill:#38645B;}
	.st30{fill:#3C6B61;}
	.st31{fill:#EECF6B;}
	.st32{opacity:0.4;fill:#EECF6B;}
	.st33{fill:#892F14;}
	.st34{opacity:0.5;fill:#892F14;}
	.st35{opacity:0.5;fill:#38645B;}
	.st36{opacity:0.5;fill:#FFFFFF;}
	.st37{opacity:0.3;fill:#FFFFFF;}
	.st38{opacity:0.5;clip-path:url(#SVGID_12_);fill:#892F14;}
	.st39{fill:#AD7746;}
	.st40{fill:#8A5F38;}
	.st41{fill:#6E1C25;}
	.st42{clip-path:url(#SVGID_14_);fill:none;stroke:#FFFFFF;stroke-width:1.2432;stroke-miterlimit:10;}
	.st43{opacity:0.4;fill:#8A232F;}
	.st44{fill:#77AA8A;}
	.st45{fill:#80B394;}
</style>
<g id="BACKGROUND">
</g>
<g id="OBJECTS">
	<g>
		<rect x="-75.59" class="st0" width="396.38" height="500"/>
		<g>
			<path class="st1" d="M156.18,413.15H89.02c0,0-155.07-5.22-145.38,10.44c9.69,15.66,60.39,9.69,50.7,15.66
				c-9.69,5.96,26.09,10.44,98.41,11.18c7.02,0.07,14.2,0.16,21.43,0.24v0.19c2.81-0.03,5.61-0.06,8.42-0.09
				c2.8,0.03,5.61,0.06,8.42,0.09v-0.19c7.24-0.09,14.41-0.17,21.43-0.24c72.32-0.75,108.1-5.22,98.41-11.18
				c-9.69-5.96,41,0,50.7-15.66C311.25,407.93,156.18,413.15,156.18,413.15z"/>
			<path class="st2" d="M255.4,417.14c27.06-30.99,43.46-71.52,43.46-115.89c0-97.35-78.92-176.27-176.27-176.27
				S-53.67,203.89-53.67,301.24c0,44.37,16.4,84.91,43.46,115.89H255.4z"/>
			<g>
				<g>
					<g>
						<g>
							<path class="st1" d="M22.61,279.67c0.75,1.12,1.15,2.25,1.43,3.37c0.27,1.12,0.39,2.25,0.39,3.37c0,1.12-0.12,2.25-0.39,3.37
								c-0.28,1.12-0.67,2.25-1.43,3.37c-0.76-1.12-1.15-2.25-1.43-3.37c-0.27-1.12-0.39-2.25-0.39-3.37c0-1.12,0.13-2.25,0.39-3.37
								C21.47,281.92,21.86,280.79,22.61,279.67z"/>
						</g>
						<g>
							<path class="st1" d="M29.36,286.41c-1.12,0.75-2.25,1.15-3.37,1.43c-1.12,0.27-2.25,0.39-3.37,0.39
								c-1.12,0-2.25-0.12-3.37-0.39c-1.12-0.28-2.25-0.67-3.37-1.43c1.12-0.76,2.25-1.15,3.37-1.43c1.12-0.27,2.25-0.39,3.37-0.39
								c1.12,0,2.25,0.13,3.37,0.39C27.11,285.27,28.24,285.66,29.36,286.41z"/>
						</g>
					</g>
				</g>
				<g>
					<g>
						<g>
							<path class="st1" d="M165.81,157.89c0.75,1.12,1.15,2.25,1.43,3.37c0.27,1.12,0.39,2.25,0.39,3.37
								c0,1.12-0.12,2.25-0.39,3.37c-0.28,1.12-0.67,2.25-1.43,3.37c-0.76-1.12-1.15-2.25-1.43-3.37c-0.27-1.12-0.39-2.25-0.39-3.37
								c0-1.12,0.13-2.25,0.39-3.37C164.66,160.14,165.06,159.01,165.81,157.89z"/>
						</g>
						<g>
							<path class="st1" d="M172.56,164.64c-1.12,0.75-2.25,1.15-3.37,1.43c-1.12,0.27-2.25,0.39-3.37,0.39
								c-1.12,0-2.25-0.12-3.37-0.39c-1.12-0.28-2.25-0.67-3.37-1.43c1.12-0.76,2.25-1.15,3.37-1.43c1.12-0.27,2.25-0.39,3.37-0.39
								c1.12,0,2.25,0.13,3.37,0.39C170.31,163.49,171.43,163.88,172.56,164.64z"/>
						</g>
					</g>
				</g>
				<g>
					<g>
						<g>
							<path class="st1" d="M224.58,311.7c0.75,1.12,1.15,2.25,1.43,3.37c0.27,1.12,0.39,2.25,0.39,3.37c0,1.12-0.12,2.25-0.39,3.37
								c-0.28,1.12-0.67,2.25-1.43,3.37c-0.76-1.12-1.15-2.25-1.43-3.37c-0.27-1.12-0.39-2.25-0.39-3.37c0-1.12,0.13-2.25,0.39-3.37
								C223.43,313.95,223.82,312.82,224.58,311.7z"/>
						</g>
						<g>
							<path class="st1" d="M231.33,318.44c-1.12,0.75-2.25,1.15-3.37,1.43c-1.12,0.27-2.25,0.39-3.37,0.39
								c-1.12,0-2.25-0.12-3.37-0.39c-1.12-0.28-2.25-0.67-3.37-1.43c1.12-0.76,2.25-1.15,3.37-1.43c1.12-0.27,2.25-0.39,3.37-0.39
								c1.12,0,2.25,0.13,3.37,0.39C229.08,317.3,230.2,317.69,231.33,318.44z"/>
						</g>
					</g>
				</g>
				<g>
					<g>
						<g>
							<path class="st1" d="M192.34,231.03c0.44,0.66,0.66,1.31,0.83,1.97c0.16,0.66,0.23,1.31,0.23,1.97
								c0,0.66-0.07,1.31-0.23,1.97c-0.17,0.66-0.39,1.31-0.84,1.97c-0.45-0.66-0.67-1.31-0.84-1.97c-0.16-0.66-0.23-1.31-0.23-1.97
								c0-0.66,0.07-1.31,0.23-1.97C191.68,232.34,191.9,231.69,192.34,231.03z"/>
						</g>
						<g>
							<path class="st1" d="M196.28,234.97c-0.66,0.44-1.31,0.66-1.97,0.83c-0.66,0.16-1.31,0.23-1.97,0.23
								c-0.66,0-1.31-0.07-1.97-0.23c-0.66-0.17-1.31-0.39-1.97-0.84c0.66-0.45,1.31-0.67,1.97-0.84c0.66-0.16,1.31-0.23,1.97-0.23
								c0.66,0,1.31,0.07,1.97,0.23C194.96,234.3,195.62,234.53,196.28,234.97z"/>
						</g>
					</g>
				</g>
				<g>
					<g>
						<g>
							<path class="st1" d="M-19.95,354.96c0.44,0.66,0.66,1.31,0.83,1.97c0.16,0.66,0.23,1.31,0.23,1.97
								c0,0.66-0.07,1.31-0.23,1.97c-0.17,0.66-0.39,1.31-0.84,1.97c-0.45-0.66-0.67-1.31-0.84-1.97c-0.16-0.66-0.23-1.31-0.23-1.97
								c0-0.66,0.07-1.31,0.23-1.97C-20.61,356.28-20.39,355.62-19.95,354.96z"/>
						</g>
						<g>
							<path class="st1" d="M-16.01,358.9c-0.66,0.44-1.31,0.66-1.97,0.83c-0.66,0.16-1.31,0.23-1.97,0.23
								c-0.66,0-1.31-0.07-1.97-0.23c-0.66-0.17-1.31-0.39-1.97-0.84c0.66-0.45,1.31-0.67,1.97-0.84c0.66-0.16,1.31-0.23,1.97-0.23
								c0.66,0,1.31,0.07,1.97,0.23C-17.33,358.24-16.67,358.46-16.01,358.9z"/>
						</g>
					</g>
				</g>
				<g>
					<g>
						<g>
							<path class="st1" d="M68.39,191.83c0.51,0.76,0.78,1.52,0.97,2.28c0.18,0.76,0.27,1.52,0.27,2.28c0,0.76-0.08,1.52-0.26,2.28
								c-0.19,0.76-0.46,1.52-0.97,2.28c-0.51-0.76-0.78-1.52-0.97-2.28c-0.18-0.76-0.27-1.52-0.26-2.28c0-0.76,0.09-1.52,0.27-2.28
								C67.61,193.35,67.88,192.59,68.39,191.83z"/>
						</g>
						<g>
							<path class="st1" d="M72.96,196.4c-0.76,0.51-1.52,0.78-2.28,0.97c-0.76,0.18-1.52,0.27-2.28,0.27
								c-0.76,0-1.52-0.08-2.28-0.26c-0.76-0.19-1.52-0.46-2.28-0.97c0.76-0.51,1.52-0.78,2.28-0.97c0.76-0.18,1.52-0.27,2.28-0.26
								c0.76,0,1.52,0.09,2.28,0.27C71.44,195.62,72.2,195.88,72.96,196.4z"/>
						</g>
					</g>
				</g>
				<g>
					<g>
						<path class="st3" d="M208.27,282.78c2.05,0,2.06-3.19,0-3.19C206.21,279.59,206.21,282.78,208.27,282.78L208.27,282.78z"/>
					</g>
				</g>
				<g>
					<g>
						<path class="st3" d="M264.32,283.97c2.05,0,2.06-3.19,0-3.19C262.27,280.77,262.26,283.97,264.32,283.97L264.32,283.97z"/>
					</g>
				</g>
				<g>
					<g>
						<path class="st3" d="M236.31,198.35c2.05,0,2.06-3.19,0-3.19C234.26,195.16,234.25,198.35,236.31,198.35L236.31,198.35z"/>
					</g>
				</g>
				<g>
					<g>
						<path class="st1" d="M-18.43,255.43c2.05,0,2.06-3.19,0-3.19C-20.48,252.23-20.48,255.43-18.43,255.43L-18.43,255.43z"/>
					</g>
				</g>
				<g>
					<g>
						<path class="st1" d="M44.06,179.87c2.05,0,2.06-3.19,0-3.19C42,176.68,42,179.87,44.06,179.87L44.06,179.87z"/>
					</g>
				</g>
				<g>
					<g>
						<path class="st3" d="M238.64,363.67c4.11,0,4.11-6.38,0-6.38C234.53,357.29,234.52,363.67,238.64,363.67L238.64,363.67z"/>
					</g>
				</g>
				<g>
					<g>
						<path class="st1" d="M232.87,261.78c4.11,0,4.11-6.38,0-6.38C228.76,255.39,228.76,261.78,232.87,261.78L232.87,261.78z"/>
					</g>
				</g>
				<g>
					<g>
						<path class="st3" d="M48.16,243.81c4.11,0,4.11-6.38,0-6.38C44.06,237.43,44.05,243.81,48.16,243.81L48.16,243.81z"/>
					</g>
				</g>
				<g>
					<g>
						<path class="st3" d="M249,228.48c4.11,0,4.11-6.38,0-6.38C244.89,222.1,244.88,228.48,249,228.48L249,228.48z"/>
					</g>
				</g>
				<g>
					<g>
						<path class="st3" d="M269.08,334.71c4.11,0,4.11-6.38,0-6.38C264.97,328.33,264.96,334.71,269.08,334.71L269.08,334.71z"/>
					</g>
				</g>
				<g>
					<g>
						<path class="st3" d="M87.92,158.41c4.11,0,4.11-6.38,0-6.38C83.82,152.03,83.81,158.41,87.92,158.41L87.92,158.41z"/>
					</g>
				</g>
				<g>
					<g>
						<path class="st3" d="M17.63,220.77c4.11,0,4.11-6.38,0-6.38C13.52,214.39,13.52,220.77,17.63,220.77L17.63,220.77z"/>
					</g>
				</g>
				<g>
					<g>
						<path class="st3" d="M-6.01,322.82c4.11,0,4.11-6.38,0-6.38C-10.12,316.44-10.12,322.82-6.01,322.82L-6.01,322.82z"/>
					</g>
				</g>
				<g>
					<g>
						<path class="st3" d="M198.26,205.23c4.11,0,4.11-6.38,0-6.38C194.15,198.84,194.14,205.23,198.26,205.23L198.26,205.23z"/>
					</g>
				</g>
			</g>
			<g>
				<g>
					<polygon class="st4" points="107.91,403.44 85.54,403.44 82.87,431.99 107.91,431.99 					"/>
					<g>
						<g>
							<g>
								<g>
									<path class="st5" d="M103.31,393.72c0,0,1.69,7.46-6.75,7.46h4.08c0,0,6.68-0.07,6.68-6.26L103.31,393.72z"/>
									<path class="st6" d="M96.56,401.18c0,0-0.89-4.36,5.62-7.46c0.69-0.33,1.49-0.35,2.19-0.05l2.96,1.24
										c0,0-6.19,2.04-8.72,6.26H96.56z"/>
								</g>
								<g>
									<path class="st5" d="M89.81,393.72c0,0-1.69,7.46,6.75,7.46h-4.08c0,0-6.68-0.07-6.68-6.26L89.81,393.72z"/>
									<path class="st6" d="M96.57,401.18c-0.44,2.16,1.32-4.16-5.62-7.46c-0.69-0.33-1.49-0.35-2.19-0.05l-2.96,1.24
										c0,0,6.19,2.04,8.72,6.26H96.57z"/>
								</g>
								<path class="st5" d="M97.1,398.23c-0.32,0.67-0.75,1.27-0.81,1.76c-0.06-0.49-0.21-1.09-0.53-1.76
									c-0.72,0.36-0.78,1.4-0.78,2.64c0,0.11,0.01,0.21,0.02,0.31h1.57h0.01h1.55c0.01-0.1,0.02-0.2,0.02-0.31
									C98.14,399.63,97.81,398.59,97.1,398.23z"/>
							</g>
							<path class="st7" d="M97.93,400.87c0,1.19-0.61,2.15-1.37,2.15c-0.76,0-1.37-0.96-1.37-2.15c0-1.19,0.61-2.15,1.37-2.15
								C97.32,398.72,97.93,399.68,97.93,400.87z"/>
						</g>
					</g>
					<rect x="82.84" y="401.18" class="st4" width="27.45" height="4.88"/>
					<rect x="93.34" y="401.18" class="st6" width="6.44" height="30.81"/>
				</g>
				<polygon class="st8" points="120.6,401.18 90.68,401.18 97,431.99 120.6,431.99 				"/>
				<g>
					<g>
						<g>
							<g>
								<g>
									<path class="st9" d="M66.22,386.09c0,0,1.5,6.67-6.05,6.65l3.65,0.01c0,0,5.97-0.05,5.99-5.59L66.22,386.09z"/>
									<path class="st4" d="M60.17,392.74c0,0-0.78-3.9,5.04-6.66c0.61-0.29,1.33-0.31,1.96-0.04l2.64,1.12
										c0,0-5.54,1.81-7.81,5.58L60.17,392.74z"/>
								</g>
								<g>
									<path class="st9" d="M54.15,386.06c0,0-1.52,6.66,6.02,6.68l-3.65-0.01c0,0-5.97-0.07-5.96-5.61L54.15,386.06z"/>
									<path class="st4" d="M60.18,392.74c0,0,0.8-3.9-5.01-6.67c-0.61-0.29-1.33-0.31-1.96-0.05l-2.64,1.11
										c0,0,5.53,1.83,7.79,5.61L60.18,392.74z"/>
								</g>
								<path class="st10" d="M60.65,390.11c-0.29,0.6-0.42,1.14-0.48,1.57c-0.06-0.43-0.19-0.98-0.47-1.57
									c-0.64,0.32-0.95,1.25-0.95,2.36c0,0.09,0.01,0.18,0.02,0.28l1.4,0h0.01l1.39,0c0.01-0.09,0.02-0.18,0.02-0.28
									C61.58,391.35,61.29,390.43,60.65,390.11z"/>
							</g>
							<path class="st11" d="M61.4,392.46c0,1.06-0.55,1.92-1.23,1.92c-0.68,0-1.23-0.86-1.22-1.92c0-1.06,0.55-1.92,1.23-1.92
								C60.85,390.54,61.4,391.4,61.4,392.46z"/>
						</g>
					</g>
					<polygon class="st12" points="73.7,392.72 47,392.72 45.31,431.99 70.86,431.99 					"/>
					<g>
						<defs>
							<polygon id="SVGID_1_" points="73.7,392.72 47,392.72 45.31,431.99 70.86,431.99 							"/>
						</defs>
						<clipPath id="SVGID_2_">
							<use xlink:href="#SVGID_1_"  style="overflow:visible;"/>
						</clipPath>
						<line class="st13" x1="39.12" y1="397.69" x2="76.97" y2="397.69"/>
						<line class="st13" x1="42.16" y1="405.03" x2="80.01" y2="405.03"/>
						<line class="st13" x1="42.16" y1="412.36" x2="80.01" y2="412.36"/>
						<line class="st13" x1="42.16" y1="419.69" x2="80.01" y2="419.69"/>
						<line class="st13" x1="42.16" y1="427.03" x2="80.01" y2="427.03"/>
					</g>
					<polygon class="st8" points="46.89,393.64 46.73,398.69 73.27,398.69 73.63,393.64 					"/>
					<polygon class="st12" points="75.12,392.72 45.55,392.72 44.99,397.2 74.87,397.2 					"/>
				</g>
				<g>
					<g>
						<rect x="-19.14" y="413.65" class="st12" width="60.37" height="18.35"/>
						<g>
							<g>
								<circle class="st3" cx="-13.48" cy="420.36" r="0.89"/>
								<path class="st3" d="M3.75,420.36c0,0.49-0.4,0.89-0.89,0.89c-0.49,0-0.89-0.4-0.89-0.89c0-0.49,0.4-0.89,0.89-0.89
									C3.36,419.47,3.75,419.87,3.75,420.36z"/>
								<circle class="st3" cx="19.22" cy="420.36" r="0.89"/>
								<path class="st3" d="M36.45,420.36c0,0.49-0.4,0.89-0.89,0.89c-0.49,0-0.89-0.4-0.89-0.89c0-0.49,0.4-0.89,0.89-0.89
									C36.05,419.47,36.45,419.87,36.45,420.36z"/>
							</g>
							<g>
								<path class="st3" d="M-4.42,424.62c0,0.49-0.4,0.89-0.89,0.89c-0.49,0-0.89-0.4-0.89-0.89c0-0.49,0.4-0.89,0.89-0.89
									C-4.82,423.74-4.42,424.13-4.42,424.62z"/>
								<circle class="st3" cx="11.04" cy="424.62" r="0.89"/>
								<circle class="st3" cx="27.39" cy="424.62" r="0.89"/>
							</g>
							<g>
								<circle class="st3" cx="-13.48" cy="428.89" r="0.89"/>
								<path class="st3" d="M3.75,428.89c0,0.49-0.4,0.89-0.89,0.89c-0.49,0-0.89-0.4-0.89-0.89c0-0.49,0.4-0.89,0.89-0.89
									C3.36,428,3.75,428.4,3.75,428.89z"/>
								<circle class="st3" cx="19.22" cy="428.89" r="0.89"/>
								<path class="st3" d="M36.45,428.89c0,0.49-0.4,0.89-0.89,0.89c-0.49,0-0.89-0.4-0.89-0.89c0-0.49,0.4-0.89,0.89-0.89
									C36.05,428,36.45,428.4,36.45,428.89z"/>
							</g>
						</g>
						<polygon class="st14" points="-19.14,413.65 -19.14,418.36 41.09,419.69 41.22,413.65 						"/>
						<rect x="-20.64" y="410.82" class="st12" width="63.58" height="5.77"/>
					</g>
					<g>
						<g>
							<g>
								<g>
									<g>
										<path class="st5" d="M9.09,369.34c0,0,1.73,7.62-6.9,7.62h4.17c0,0,6.83-0.07,6.83-6.4L9.09,369.34z"/>
										<path class="st6" d="M2.19,376.96c0,0-0.9-4.46,5.74-7.62c0.7-0.33,1.52-0.35,2.24-0.05l3.02,1.27c0,0-6.33,2.08-8.91,6.4
											H2.19z"/>
									</g>
									<g>
										<path class="st5" d="M-4.7,369.34c0,0-1.73,7.62,6.9,7.62h-4.17c0,0-6.83-0.07-6.83-6.4L-4.7,369.34z"/>
										<path class="st6" d="M2.2,376.96c0,0,0.9-4.46-5.74-7.62c-0.7-0.33-1.52-0.35-2.24-0.05l-3.02,1.27
											c0,0,6.33,2.08,8.91,6.4H2.2z"/>
									</g>
									<path class="st5" d="M2.74,373.95c-0.33,0.68-0.48,1.3-0.54,1.8c-0.07-0.5-0.22-1.12-0.54-1.8
										c-0.73,0.36-1.09,1.43-1.09,2.69c0,0.11,0.01,0.21,0.02,0.32h1.6H2.2h1.59c0.01-0.11,0.02-0.21,0.02-0.32
										C3.81,375.38,3.47,374.31,2.74,373.95z"/>
								</g>
								<path class="st7" d="M3.6,376.64c0,1.21-0.63,2.2-1.4,2.2s-1.4-0.98-1.4-2.2c0-1.21,0.63-2.2,1.4-2.2S3.6,375.43,3.6,376.64
									z"/>
							</g>
						</g>
						<polygon class="st4" points="16.52,410.67 -11.15,410.67 -9.33,376.96 14.7,376.96 						"/>
						<g>
							<defs>
								<polygon id="SVGID_3_" points="16.52,410.67 -11.15,410.67 -9.33,376.96 14.7,376.96 								"/>
							</defs>
							<clipPath id="SVGID_4_">
								<use xlink:href="#SVGID_3_"  style="overflow:visible;"/>
							</clipPath>
							<g class="st15">
								<g>
									<path class="st3" d="M3.32,388.76c-0.34,0-0.62-0.28-0.62-0.62c0-0.34,0.28-0.62,0.62-0.62c0.34,0,0.62,0.28,0.62,0.62
										C3.94,388.48,3.66,388.76,3.32,388.76z"/>
									<path class="st3" d="M2.88,396.49c-0.24-0.24-0.24-0.63,0-0.88c0.24-0.24,0.63-0.24,0.88,0c0.24,0.24,0.24,0.63,0,0.88
										C3.52,396.73,3.12,396.73,2.88,396.49z"/>
									<path class="st3" d="M6.98,384.8c-0.34,0-0.62-0.28-0.62-0.62c0-0.34,0.28-0.62,0.62-0.62c0.34,0,0.62,0.28,0.62,0.62
										C7.6,384.52,7.32,384.8,6.98,384.8z"/>
									<path class="st3" d="M6.98,392.71c-0.34,0-0.62-0.28-0.62-0.62c0-0.34,0.28-0.62,0.62-0.62c0.34,0,0.62,0.28,0.62,0.62
										C7.6,392.44,7.32,392.71,6.98,392.71z"/>
									<path class="st3" d="M6.98,400.62c-0.34,0-0.62-0.28-0.62-0.62c0-0.34,0.28-0.62,0.62-0.62c0.34,0,0.62,0.28,0.62,0.62
										C7.6,400.35,7.32,400.62,6.98,400.62z"/>
									<path class="st3" d="M3.32,404.58c-0.34,0-0.62-0.28-0.62-0.62c0-0.34,0.28-0.62,0.62-0.62c0.34,0,0.62,0.28,0.62,0.62
										C3.94,404.3,3.66,404.58,3.32,404.58z"/>
									<path class="st3" d="M6.98,408.54c-0.34,0-0.62-0.28-0.62-0.62c0-0.34,0.28-0.62,0.62-0.62c0.34,0,0.62,0.28,0.62,0.62
										C7.6,408.26,7.32,408.54,6.98,408.54z"/>
								</g>
								<g>
									<path class="st3" d="M11.31,388.76c-0.34,0-0.62-0.28-0.62-0.62c0-0.34,0.28-0.62,0.62-0.62c0.34,0,0.62,0.28,0.62,0.62
										C11.93,388.48,11.66,388.76,11.31,388.76z"/>
									<path class="st3" d="M10.88,396.49c-0.24-0.24-0.24-0.63,0-0.88c0.24-0.24,0.63-0.24,0.88,0c0.24,0.24,0.24,0.63,0,0.88
										C11.51,396.73,11.12,396.73,10.88,396.49z"/>
									<path class="st3" d="M14.98,384.8c-0.34,0-0.62-0.28-0.62-0.62c0-0.34,0.28-0.62,0.62-0.62c0.34,0,0.62,0.28,0.62,0.62
										C15.59,384.52,15.32,384.8,14.98,384.8z"/>
									<path class="st3" d="M14.98,392.71c-0.34,0-0.62-0.28-0.62-0.62c0-0.34,0.28-0.62,0.62-0.62c0.34,0,0.62,0.28,0.62,0.62
										C15.59,392.44,15.32,392.71,14.98,392.71z"/>
									<path class="st3" d="M14.98,400.62c-0.34,0-0.62-0.28-0.62-0.62c0-0.34,0.28-0.62,0.62-0.62c0.34,0,0.62,0.28,0.62,0.62
										C15.59,400.35,15.32,400.62,14.98,400.62z"/>
									<path class="st3" d="M11.31,404.58c-0.34,0-0.62-0.28-0.62-0.62c0-0.34,0.28-0.62,0.62-0.62c0.34,0,0.62,0.28,0.62,0.62
										C11.93,404.3,11.66,404.58,11.31,404.58z"/>
									<path class="st3" d="M14.98,408.54c-0.34,0-0.62-0.28-0.62-0.62c0-0.34,0.28-0.62,0.62-0.62c0.34,0,0.62,0.28,0.62,0.62
										C15.59,408.26,15.32,408.54,14.98,408.54z"/>
								</g>
								<path class="st3" d="M-9.58,384.8c-0.34,0-0.62-0.28-0.62-0.62c0-0.34,0.28-0.62,0.62-0.62c0.34,0,0.62,0.28,0.62,0.62
									C-8.96,384.52-9.24,384.8-9.58,384.8z"/>
								<path class="st3" d="M-9.58,392.71c-0.34,0-0.62-0.28-0.62-0.62c0-0.34,0.28-0.62,0.62-0.62c0.34,0,0.62,0.28,0.62,0.62
									C-8.96,392.44-9.24,392.71-9.58,392.71z"/>
								<path class="st3" d="M-9.58,400.62c-0.34,0-0.62-0.28-0.62-0.62c0-0.34,0.28-0.62,0.62-0.62c0.34,0,0.62,0.28,0.62,0.62
									C-8.96,400.35-9.24,400.62-9.58,400.62z"/>
								<path class="st3" d="M-9.58,408.54c-0.34,0-0.62-0.28-0.62-0.62c0-0.34,0.28-0.62,0.62-0.62c0.34,0,0.62,0.28,0.62,0.62
									C-8.96,408.26-9.24,408.54-9.58,408.54z"/>
								<g>
									<path class="st3" d="M-5.25,388.76c-0.34,0-0.62-0.28-0.62-0.62c0-0.34,0.28-0.62,0.62-0.62c0.34,0,0.62,0.28,0.62,0.62
										C-4.63,388.48-4.9,388.76-5.25,388.76z"/>
									<path class="st3" d="M-5.68,396.49c-0.24-0.24-0.24-0.63,0-0.88c0.24-0.24,0.63-0.24,0.88,0c0.24,0.24,0.24,0.63,0,0.88
										C-5.05,396.73-5.44,396.73-5.68,396.49z"/>
									<path class="st3" d="M-1.59,384.8c-0.34,0-0.62-0.28-0.62-0.62c0-0.34,0.28-0.62,0.62-0.62c0.34,0,0.62,0.28,0.62,0.62
										C-0.97,384.52-1.24,384.8-1.59,384.8z"/>
									<path class="st3" d="M-1.59,392.71c-0.34,0-0.62-0.28-0.62-0.62c0-0.34,0.28-0.62,0.62-0.62c0.34,0,0.62,0.28,0.62,0.62
										C-0.97,392.44-1.24,392.71-1.59,392.71z"/>
									<path class="st3" d="M-1.59,400.62c-0.34,0-0.62-0.28-0.62-0.62c0-0.34,0.28-0.62,0.62-0.62c0.34,0,0.62,0.28,0.62,0.62
										C-0.97,400.35-1.24,400.62-1.59,400.62z"/>
									<path class="st3" d="M-5.25,404.58c-0.34,0-0.62-0.28-0.62-0.62c0-0.34,0.28-0.62,0.62-0.62c0.34,0,0.62,0.28,0.62,0.62
										C-4.63,404.3-4.9,404.58-5.25,404.58z"/>
									<path class="st3" d="M-1.59,408.54c-0.34,0-0.62-0.28-0.62-0.62c0-0.34,0.28-0.62,0.62-0.62c0.34,0,0.62,0.28,0.62,0.62
										C-0.97,408.26-1.24,408.54-1.59,408.54z"/>
								</g>
							</g>
						</g>
						<polygon class="st16" points="14.76,377.97 -9.39,377.97 -9.61,382.53 14.98,382.53 						"/>
						<rect x="-10.81" y="376.96" class="st4" width="26.63" height="4.1"/>
						<rect x="-0.34" y="376.96" class="st6" width="5.06" height="33.71"/>
					</g>
				</g>
				<g>
					<g>
						<g>
							<g>
								<g>
									<path class="st9" d="M237.05,372.75c0,0,2.47,10.92-9.89,10.92h5.98c0,0,9.79-0.1,9.79-9.17L237.05,372.75z"/>
									<path class="st4" d="M227.16,383.67c0,0-1.3-6.39,8.23-10.92c1.01-0.48,2.18-0.51,3.21-0.07l4.33,1.82
										c0,0-9.07,2.99-12.78,9.17H227.16z"/>
								</g>
								<g>
									<path class="st9" d="M217.28,372.75c0,0-2.47,10.92,9.89,10.92h-5.98c0,0-9.79-0.1-9.79-9.17L217.28,372.75z"/>
									<path class="st4" d="M227.17,383.67c0,0,1.3-6.39-8.23-10.92c-1.01-0.48-2.18-0.51-3.21-0.07l-4.33,1.82
										c0,0,9.07,2.99,12.78,9.17H227.17z"/>
								</g>
								<path class="st9" d="M227.95,379.35c-0.47,0.98-0.69,1.87-0.78,2.58c-0.09-0.71-0.31-1.6-0.78-2.58
									c-1.05,0.52-1.56,2.04-1.56,3.86c0,0.16,0.02,0.3,0.03,0.45h2.3h0.02h2.27c0.01-0.15,0.03-0.3,0.03-0.45
									C229.48,381.4,229,379.88,227.95,379.35z"/>
							</g>
							<path class="st11" d="M229.18,383.22c0,1.74-0.9,3.15-2.01,3.15c-1.11,0-2.01-1.41-2.01-3.15c0-1.74,0.9-3.15,2.01-3.15
								C228.28,380.07,229.18,381.48,229.18,383.22z"/>
						</g>
					</g>
					<polygon class="st6" points="247.7,431.99 208.04,431.99 210.64,383.67 245.1,383.67 					"/>
					<g>
						<defs>
							<polygon id="SVGID_5_" points="247.7,431.99 208.04,431.99 210.64,383.67 245.1,383.67 							"/>
						</defs>
						<clipPath id="SVGID_6_">
							<use xlink:href="#SVGID_5_"  style="overflow:visible;"/>
						</clipPath>
						<g class="st17">
							<g>
								<path class="st3" d="M228.78,400.58c-0.49,0-0.89-0.4-0.89-0.89c0-0.49,0.4-0.89,0.89-0.89c0.49,0,0.89,0.4,0.89,0.89
									C229.67,400.18,229.27,400.58,228.78,400.58z"/>
								<circle class="st3" cx="228.78" cy="411.03" r="0.89"/>
								<circle class="st3" cx="234.03" cy="394.02" r="0.89"/>
								<path class="st3" d="M234.03,406.25c-0.49,0-0.89-0.4-0.89-0.89c0-0.49,0.4-0.89,0.89-0.89c0.49,0,0.89,0.4,0.89,0.89
									C234.92,405.85,234.52,406.25,234.03,406.25z"/>
								<circle class="st3" cx="234.03" cy="416.71" r="0.89"/>
								<path class="st3" d="M228.78,423.27c-0.49,0-0.89-0.4-0.89-0.89c0-0.49,0.4-0.89,0.89-0.89c0.49,0,0.89,0.4,0.89,0.89
									C229.67,422.87,229.27,423.27,228.78,423.27z"/>
								<circle class="st3" cx="234.03" cy="428.05" r="0.89"/>
							</g>
							<g>
								<circle class="st3" cx="240.24" cy="399.69" r="0.89"/>
								<path class="st3" d="M239.62,411.66c-0.35-0.35-0.35-0.91,0-1.26c0.35-0.35,0.91-0.35,1.26,0c0.35,0.35,0.35,0.91,0,1.26
									C240.52,412.01,239.96,412.01,239.62,411.66z"/>
								<circle class="st3" cx="245.49" cy="394.02" r="0.89"/>
								<path class="st3" d="M245.49,406.25c-0.49,0-0.89-0.4-0.89-0.89c0-0.49,0.4-0.89,0.89-0.89c0.49,0,0.89,0.4,0.89,0.89
									C246.38,405.85,245.98,406.25,245.49,406.25z"/>
								<circle class="st3" cx="245.49" cy="416.71" r="0.89"/>
								<path class="st3" d="M240.24,423.27c-0.49,0-0.89-0.4-0.89-0.89c0-0.49,0.4-0.89,0.89-0.89c0.49,0,0.89,0.4,0.89,0.89
									C241.13,422.87,240.73,423.27,240.24,423.27z"/>
								<circle class="st3" cx="245.49" cy="428.05" r="0.89"/>
							</g>
							<path class="st3" d="M210.29,394.91c-0.49,0-0.89-0.4-0.89-0.89c0-0.49,0.4-0.89,0.89-0.89c0.49,0,0.89,0.4,0.89,0.89
								C211.17,394.51,210.78,394.91,210.29,394.91z"/>
							<path class="st3" d="M210.29,406.25c-0.49,0-0.89-0.4-0.89-0.89c0-0.49,0.4-0.89,0.89-0.89c0.49,0,0.89,0.4,0.89,0.89
								C211.17,405.85,210.78,406.25,210.29,406.25z"/>
							<path class="st3" d="M210.29,417.59c-0.49,0-0.89-0.4-0.89-0.89s0.4-0.89,0.89-0.89c0.49,0,0.89,0.4,0.89,0.89
								S210.78,417.59,210.29,417.59z"/>
							<path class="st3" d="M210.29,428.94c-0.49,0-0.89-0.4-0.89-0.89s0.4-0.89,0.89-0.89c0.49,0,0.89,0.4,0.89,0.89
								S210.78,428.94,210.29,428.94z"/>
							<g>
								<path class="st3" d="M216.5,400.58c-0.49,0-0.89-0.4-0.89-0.89c0-0.49,0.4-0.89,0.89-0.89c0.49,0,0.89,0.4,0.89,0.89
									C217.39,400.18,216.99,400.58,216.5,400.58z"/>
								<path class="st3" d="M215.87,411.66c-0.35-0.35-0.35-0.91,0-1.26c0.35-0.35,0.91-0.35,1.26,0c0.35,0.35,0.35,0.91,0,1.26
									C216.78,412.01,216.22,412.01,215.87,411.66z"/>
								<path class="st3" d="M221.75,394.91c-0.49,0-0.89-0.4-0.89-0.89c0-0.49,0.4-0.89,0.89-0.89c0.49,0,0.89,0.4,0.89,0.89
									C222.64,394.51,222.24,394.91,221.75,394.91z"/>
								<path class="st3" d="M221.75,406.25c-0.49,0-0.89-0.4-0.89-0.89c0-0.49,0.4-0.89,0.89-0.89c0.49,0,0.89,0.4,0.89,0.89
									C222.64,405.85,222.24,406.25,221.75,406.25z"/>
								<path class="st3" d="M221.75,417.59c-0.49,0-0.89-0.4-0.89-0.89s0.4-0.89,0.89-0.89c0.49,0,0.89,0.4,0.89,0.89
									S222.24,417.59,221.75,417.59z"/>
								<path class="st3" d="M216.5,423.27c-0.49,0-0.89-0.4-0.89-0.89c0-0.49,0.4-0.89,0.89-0.89c0.49,0,0.89,0.4,0.89,0.89
									C217.39,422.87,216.99,423.27,216.5,423.27z"/>
								<path class="st3" d="M221.75,428.94c-0.49,0-0.89-0.4-0.89-0.89s0.4-0.89,0.89-0.89c0.49,0,0.89,0.4,0.89,0.89
									S222.24,428.94,221.75,428.94z"/>
							</g>
						</g>
					</g>
					<polygon class="st18" points="245.18,385.11 210.57,385.11 210.25,390.99 245.49,390.99 					"/>
					<rect x="208.52" y="383.67" class="st6" width="38.17" height="5.88"/>
					<rect x="223.54" y="383.67" class="st4" width="7.26" height="48.32"/>
				</g>
				<g>
					<path class="st19" d="M133.49,356.6h-22.53v52.26c7.77,2.78,15.29,2.83,22.53,0V356.6z"/>
					<path class="st20" d="M133.49,386.72v-24.33h-22.53v20.1c3-1.65,6.43-3.49,9.9-6.97C125.45,380.11,129.96,385.13,133.49,386.72
						z"/>
					<g>
						<path class="st21" d="M239.89,340.89c-14.54,0-26.19-5.48-34.99-12.15c3.01-1.3,5.09-3.35,5.09-3.35
							c-10.59-1.51-16.58-7.53-18.54-9.85c-0.23-0.29-0.46-0.58-0.68-0.86c-0.03-0.04-0.05-0.07-0.05-0.07l0,0.01
							c-4.23-5.45-9.03-13.74-9.03-13.74H62.61c0,0-6.39,11.7-14.15,19.86c-2.65,1.98-9.62,6.25-19.9,5.56c0,0,2.51,3.8,6.45,5.59
							c-8.14,5.16-18.29,8.99-30.45,8.99c0,0,1.08,8.89,26.14,8.89l-9.43,14.82c0,0,12.39,1.35,21.02-7.27l-10.24,12.93
							c0,0,17.51,0,32.06-7.27l-8.35,10.78c0,0,14.15,2.29,22.09-5.66l-6.68,10.57c0,0,17.86,4.65,34.7-12.19l-3.23,8.89
							c0,0,9.61-1.08,19.58-11.05c9.97,9.97,19.6,11.05,19.6,11.05l-3.23-8.89c16.84,16.84,34.55,11.89,34.55,11.89l-6.53-10.27
							c7.95,7.95,22.09,5.66,22.09,5.66l-8.35-10.78c14.55,7.27,32.06,7.27,32.06,7.27l-10.24-12.93
							c8.62,8.62,21.02,7.27,21.02,7.27l-9.43-14.82C238.82,349.79,239.89,340.89,239.89,340.89z"/>
						<path class="st22" d="M59.61,321.01c0,0-8.11,7.06-17.27,7.06c0,0,1.95,3.6,6.61,3c0,0-10.83,10.57-22.85,11.17
							c0,0,7.58,2.91,15.54,0.96l-8.47,12.5c0,0,10.74-2.31,18.1-8.62c0,0,2.33,5.31,10.14,6.81c0,0-4.81-12.01-4.21-17.12
							c0,0,2.4,2.85,6.98,1.05C58.7,330.4,59.61,321.01,59.61,321.01z"/>
						<path class="st22" d="M183.95,320.41c0,0,9.31,5.41,15.02,5.41c0,0-1.35,2.7-3,2.7c0,0,4.51,9.16,14.87,11.26
							c0,0-1.05,3.75-7.66,2.1c0,0,0.49,7.17,9.46,13.22c0,0-8.3,0.15-16.52-8.26c0,0-1.35,3.75-8.11,2.7c0,0,3.6-3.87,2.82-11.41
							c0,0-1.69,5.07-8.79,4.17c0.23-0.34,6.08-7.21,4.73-13.07c0,0-1.46,3.49-4.28,3.04C182.49,332.28,186.09,326.91,183.95,320.41
							z"/>
						<path class="st22" d="M105.33,342.11c-5.18,0.79-8.67-1.01-8.67-1.01c-0.56,9.46,7.43,11.83,7.43,11.83s-7.55,3.79-12.61,0.79
							c-4.92,9.42-21.96,11.45-21.96,11.45c6.08-4.13,13.07-14.27,13.07-14.27s-5.97-0.11-10.36-3.15c0,0,9.35-1.01,12.95-9.8
							c0,0-3.83,0.11-9.12-2.82c0,0,14.53-2.14,20.27-11.38C96.32,323.75,98.24,337.16,105.33,342.11z"/>
						<path class="st22" d="M140.16,346.16c1.36,5.44-6.39,12.74-6.39,12.74c4.36,0.18,8.52-3.29,8.52-3.29
							c2.76,10.58,20.18,14.31,20.18,14.31c-6.34-4.17-7.31-13.19-7.31-13.19c3.54,3.56,11.31,0.19,11.31,0.19
							s-9.69-3.94-11.32-8.35c0,0,3.3,0.21,6.45-2.31c0,0-9.83,0.12-11.78-6.89c0,0,4.06,1.51,7.96-0.94c0,0-12.42-3.79-15.01-16.01
							c0,0-4.58,12.79-10.35,17.14c0,0,5.29,1.34,7.51-2.35c0,0-4.47,9.03-9.74,12.98C130.19,350.19,137.95,349.69,140.16,346.16z"
							/>
						<path class="st22" d="M118.74,350.25c0,0,4.64,7.56-6.06,13.5C112.68,363.75,110.78,353.6,118.74,350.25z"/>
						<path class="st22" d="M79.98,319.25c0,0,1.76,9.77-8.1,11.53C71.89,330.77,70.04,324.53,79.98,319.25z"/>
						<path class="st22" d="M174.27,343.69c0,0-6.31,1.73-6.46-7.06C167.81,336.63,173.06,338.58,174.27,343.69z"/>
					</g>
					<g>
						<path class="st23" d="M206.21,293.2c-9.79,0-17.83-5.51-24.24-13.01c5.02-0.28,9.17-4.37,9.17-4.37
							c-10.99-1.57-17.02-7.99-18.74-10.1c-7.06-13.41-10.37-26.68-10.37-26.68h-39.81H82.43c0,0-3.16,12.7-9.9,25.8
							c-2.99,2.75-8.37,6.47-16.38,7.61c0,0,4.07,4.01,9.02,4.36c-6.8,9.17-15.71,16.39-26.93,16.39c0,0,15.42,11.2,23.34,4.24
							L50.3,307.96c0,0,14.35,1.82,19.2-3.03l-10.31,10.71c0,0,18.09,4.34,33.95-11.52l-6.67,10.91c0,0,15.26-1.11,23.04-8.89
							l-6.67,8.29c0,0,9.78,1.52,19.38-8.08c7.22,11.11,21.5,12.19,21.5,12.19l-8.77-12.39c7.78,7.78,19.95,6.6,19.95,6.6
							l-3.58-8.62c15.86,15.86,33.95,11.52,33.95,11.52l-10.31-10.71c4.85,4.85,19.2,3.03,19.2,3.03l-11.29-10.51
							C190.8,304.4,206.21,293.2,206.21,293.2z"/>
						<path class="st24" d="M145.96,258.84c0,0,8.15,7.1,16.93,6.42c0,0-3.94,4.73-6.98,4.28c0,0,11.04,6.76,21.85,5.29
							c0,0-3.04,6.08-11.94,4.28c0,0,11.15,10.25,19.26,11.26c0,0-5.41,5.18-11.15,2.82l8.67,9.8l-15.32-6.31
							c0,0,1.5,9.31,4.96,11.56c0,0-16.07-4.05-18.62-15.17c0,0-1.35,5.26-9.76,5.71c0,0,6.76-9.46,6.46-17.12
							c0,0-3.75,4.81-7.51,5.56c0,0,6.46-8.11,5.26-15.02c0,0-1.65,3-5.26,3.6C142.8,275.81,147.61,265.6,145.96,258.84z"/>
						<path class="st24" d="M102.41,271.45c-4.21,2.55-8.71,0-8.71,0c0.15,4.81,11.26,11.11,11.26,11.11
							c-7.21,2.4-10.51-1.95-10.51-1.95c0.9,6.46,10.66,12.31,10.66,12.31c-6.01,0.3-12.16-4.2-12.16-4.2
							c-4.51,11.41-16.37,13.52-16.37,13.52c3.45-4.05,3.15-14.42,3.15-14.42c-7.36,5.56-16.97,1.5-16.97,1.5
							c11.71-4.36,20.57-14.27,20.57-14.27c-5.11,1.5-12.92-2.25-12.92-2.25c9.01,0,14.57-5.41,14.57-5.41
							c-1.95,1.8-8.71-0.6-8.71-0.6c5.86-0.9,16.67-9.16,16.67-9.16S94.45,266.5,102.41,271.45z"/>
						<path class="st24" d="M123.17,296.04c0,0,2.03,7.66,7.32,9.12c0,0-2.82-8.22-2.14-12.95c0,0,3.04,2.14,8.11,0
							c0,0-5.63-2.25-8.79-9.46c0,0,3.04,2.37,8.67,0.79c-9.91-5.97-11.6-18.58-11.6-18.58s-4.28,9.69-12.95,12.28
							c2.25,2.14,3.72,2.59,3.72,2.59s-0.9,3.72-8.22,6.98c4.05,2.03,9.12,0.34,9.12,0.34s-5.86,9.24-12.16,12.73
							c7.66,1.46,10.7-3.04,10.7-3.04s2.93,3.83-0.68,9.01C120.35,304.04,123.17,296.04,123.17,296.04z"/>
						<path class="st24" d="M92.83,311.16c0,0,7.21,0.68,10.19-7.43C103.03,303.72,96.27,302.99,92.83,311.16z"/>
						<path class="st24" d="M132.03,266.38c0,0-2.37,7.88,4.73,11.26C136.76,277.65,138.56,271.34,132.03,266.38z"/>
						<g>
							<path class="st6" d="M72.52,263.84c7.98-0.84,15.81-1.94,23.52-3.66c7.71-1.71,15.28-3.97,23.03-6.13
								c1.94-0.52,3.91-0.99,5.87-1.48c1.98-0.43,3.96-0.9,5.97-1.26c4.03-0.65,8.09-1.22,12.19-1.28
								c8.19-0.26,16.34,0.91,24.08,3.17c0.27,0.08,0.43,0.36,0.35,0.64c-0.07,0.24-0.3,0.39-0.54,0.37l-0.01,0
								c-7.97-0.75-15.85-1.07-23.64-0.32c-7.78,0.73-15.4,2.5-23.07,4.62c-3.85,0.99-7.71,2.08-11.64,3l-2.95,0.68l-2.97,0.61
								l-2.98,0.59l-3.01,0.44c-8.02,1.2-16.17,1.48-24.19,0.75c-0.21-0.02-0.36-0.2-0.34-0.41C72.19,264,72.34,263.86,72.52,263.84
								L72.52,263.84z"/>
						</g>
					</g>
					<g>
						<g>
							<defs>
								<path id="SVGID_7_" d="M206.21,293.2c-9.79,0-17.83-5.51-24.24-13.01c5.02-0.28,9.17-4.37,9.17-4.37
									c-10.99-1.57-17.02-7.99-18.74-10.1c-7.06-13.41-10.37-26.68-10.37-26.68h-39.81H82.43c0,0-3.16,12.7-9.9,25.8
									c-2.99,2.75-8.37,6.47-16.38,7.61c0,0,4.07,4.01,9.02,4.36c-6.8,9.17-15.71,16.39-26.93,16.39c0,0,15.42,11.2,23.34,4.24
									L50.3,307.96c0,0,14.35,1.82,19.2-3.03l-10.31,10.71c0,0,18.09,4.34,33.95-11.52l-6.67,10.91c0,0,15.26-1.11,23.04-8.89
									l-6.67,8.29c0,0,9.78,1.52,19.38-8.08c7.22,11.11,21.5,12.19,21.5,12.19l-8.77-12.39c7.78,7.78,19.95,6.6,19.95,6.6
									l-3.58-8.62c15.86,15.86,33.95,11.52,33.95,11.52l-10.31-10.71c4.85,4.85,19.2,3.03,19.2,3.03l-11.29-10.51
									C190.8,304.4,206.21,293.2,206.21,293.2z"/>
							</defs>
							<clipPath id="SVGID_8_">
								<use xlink:href="#SVGID_7_"  style="overflow:visible;"/>
							</clipPath>
							<path class="st25" d="M77.18,254.67c0,0,4.18,0.23,7-1.91l-4,9.01c0,0,14.65-0.9,21.36-5.8l-0.94,2.44
								c0,0,9.64,1.67,14.37-2.22c0,0,0.79,7.21-2.48,8.62c0,0,12.9-1.3,17.63-8.28c0,0,8.88,4.11,15.86,4.05l-1.18-4.45
								c0,0,6.48,5.86,18.42,3.66l-1.8-4.79c0,0,2.66,1.13,6.49,0.17v-26.13H77.18V254.67z"/>
						</g>
						<path class="st26" d="M179.81,224.3c-8.63,0-15.51-5.31-20.78-12.07c4.67-0.62,8.4-4.29,8.4-4.29
							c-0.07-0.01-0.14-0.02-0.21-0.03c-8.59-1.28-15.73-7.26-18.86-15.36c-1.96-5.09-2.91-8.72-2.91-8.72h-23.24H99
							c0,0-1.74,6.7-5.41,14.65c-3.61,7.83-10.92,13.42-19.44,14.69c-0.07,0.01-0.15,0.02-0.22,0.03c0,0,3.01,2.96,7,4.02
							c-4.51,4.22-9.92,7.1-16.28,7.1c0,0,1.01,11.72,13.13,11.72l-13.13,9.9c0,0,17.47,6.63,27.87-3.77l-5.85,12.06
							c0,0,10.51,0.4,20.41-9.5l-1.53,5.66c0,0,5.45,0.43,12.8-4.25c0.57,3.91,0.74,8.88-1.53,10.85c0,0,7.43-2,11.71-8.83
							c6.71,4,13.49,5.27,13.49,5.27l-4.65-8.69c9.9,9.9,20.41,9.5,20.41,9.5l-7.07-10.31c10.41,10.41,29.1,2.02,29.1,2.02
							l-13.13-9.9C178.8,236.02,179.81,224.3,179.81,224.3z"/>
						<path class="st27" d="M145.21,235.3c7.33,7.33,18.92,6.87,18.92,6.87l-10.6-11.18c8.54,0,12.03-3.83,12.03-3.83
							c-7.81-2.48-13.99-10.83-17.71-15.6c3.29-0.44,6.29-3.4,6.29-3.4c-6.8-0.79-15.06-4.95-17.27-6.76c0,0-2.74,11.86-6.65,15.32
							c0,0,5.78,0.98,7.43-0.68c0,0,0.3,13.18-7.21,14.08c0,0,5.67,3.15,10.02-0.9c0,0-1.8,7.13-6.53,7.85
							C133.94,237.06,142.58,239.8,145.21,235.3z"/>
						<path class="st27" d="M108.41,201.77c-4.36,4.2-18.28,9.93-23.73,12.61l7.21-0.45c-3.18,2.97-7.73,10.1-17.65,13.74
							c0,0,5.13,3.45,13.67,3.45L77.4,241.27c0,0,8.64,3.53,19-6.16c3.45,2.55,1.65,9.61,1.65,9.61c9.87-5.71,6.95-10.89,8.71-14.12
							c0,0,4.36,3.15,8.86,0c-7.96-6.31-8.56-12.61-8.56-12.61s4.05,5.41,7.36,3.75C114.42,221.74,107.66,210.78,108.41,201.77z"/>
						<path class="st27" d="M113.82,237.21c0,0-0.45,5.86-3.08,8.26c0,0,6.46-0.68,8.11-7.43c0.86-3.5-1.88-4.51-1.88-4.51
							S114.04,235.18,113.82,237.21z"/>
						<path class="st27" d="M134.84,247.41c0,0-5.74-0.84-7.26-8.79C127.58,238.62,133.27,236.99,134.84,247.41z"/>
						<path class="st27" d="M120.2,214.61c0,0-5.86-5.33-4.28-10.89C115.92,203.72,121.4,207.85,120.2,214.61z"/>
					</g>
					<g>
						<defs>
							<path id="SVGID_9_" d="M179.81,224.3c-8.63,0-15.51-5.31-20.78-12.07c4.67-0.62,8.4-4.29,8.4-4.29
								c-0.07-0.01-0.14-0.02-0.21-0.03c-8.59-1.28-15.73-7.26-18.86-15.36c-1.96-5.09-2.91-8.72-2.91-8.72h-23.24H99
								c0,0-1.74,6.7-5.41,14.65c-3.61,7.83-10.92,13.42-19.44,14.69c-0.07,0.01-0.15,0.02-0.22,0.03c0,0,3.01,2.96,7,4.02
								c-4.51,4.22-9.92,7.1-16.28,7.1c0,0,1.01,11.72,13.13,11.72l-13.13,9.9c0,0,17.47,6.63,27.87-3.77l-5.85,12.06
								c0,0,10.51,0.4,20.41-9.5l-1.53,5.66c0,0,5.45,0.43,12.8-4.25c0.57,3.91,0.74,8.88-1.53,10.85c0,0,7.43-2,11.71-8.83
								c6.71,4,13.49,5.27,13.49,5.27l-4.65-8.69c9.9,9.9,20.41,9.5,20.41,9.5l-7.07-10.31c10.41,10.41,29.1,2.02,29.1,2.02
								l-13.13-9.9C178.8,236.02,179.81,224.3,179.81,224.3z"/>
						</defs>
						<clipPath id="SVGID_10_">
							<use xlink:href="#SVGID_9_"  style="overflow:visible;"/>
						</clipPath>
						<path class="st28" d="M93.25,199.54c0,0,3.13,0.19,6.36-1.84l-3.12,6.16c0,0,19.36-1.16,26.04-6.98c0,0,11.04,8.86,24.7,6.09
							l-2.67-5.2c0,0,2.82,1.78,7.55,0.88v-9.99H93.7L93.25,199.54z"/>
					</g>
					<g>
						<path class="st29" d="M122.22,189.94c5.86,7.07,18.79,7.48,18.79,7.48l-4.85-9.09c6.97,6.97,21.02,3.03,21.02,3.03l-10.1-6.67
							c10.31,0,11.52-7.88,11.52-7.88c-26.07,0-36.37-50.52-36.37-50.52s-10.28,50.52-36.35,50.52c0,0,1.21,7.88,11.52,7.88
							l-10.1,6.67c0,0,14.04,3.94,21.02-3.03l-4.85,9.09C114.5,197.42,122.22,189.94,122.22,189.94z"/>
						<path class="st30" d="M122.2,180.74c3.15,3.8,8.5,7.12,8.5,7.12l-1-7.99c3.75,3.75,12.47,4.48,12.47,4.48l-6.6-6.44
							c7.68,1.72,10.11-0.17,10.11-0.17c-16.16-4.18-21.57-25.49-23.02-33.23c-0.11-0.6-0.96-0.63-1.12-0.04
							c-1.99,7.6-8.7,28.5-23.2,33c0,0,3.64,2.7,10.51,0.44l-5.66,7.25c0,0,7.77-1.54,11.52-5.29l-1,7.45
							C113.71,187.32,119.05,184.54,122.2,180.74"/>
					</g>
					<g>
						<polygon class="st31" points="122.23,134.34 113.45,138.96 115.12,129.18 108.02,122.25 117.84,120.83 122.23,111.93 
							126.62,120.83 136.44,122.25 129.34,129.18 131.01,138.96 						"/>
						<polygon class="st32" points="122.23,127.96 113.45,138.96 119.86,126.24 108.02,122.25 120.77,123.45 122.23,111.93 
							123.69,123.45 136.44,122.25 124.6,126.24 131.01,138.96 						"/>
					</g>
					<g>
						<polygon class="st3" points="118.46,218.67 117.32,215 116.19,218.67 112.52,219.8 116.19,220.93 117.32,224.61 
							118.46,220.93 122.13,219.8 						"/>
					</g>
					<g>
						<polygon class="st3" points="127.2,158.06 126.42,155.54 125.64,158.06 123.12,158.84 125.64,159.62 126.42,162.15 
							127.2,159.62 129.73,158.84 						"/>
					</g>
					<g>
						<polygon class="st3" points="139.22,292.45 138.41,289.81 137.59,292.45 134.95,293.26 137.59,294.08 138.41,296.72 
							139.22,294.08 141.86,293.26 						"/>
					</g>
					<g>
						<polygon class="st3" points="99,345.24 97.87,341.57 96.74,345.24 93.06,346.38 96.74,347.51 97.87,351.18 99,347.51 
							102.67,346.38 						"/>
					</g>
					<path class="st33" d="M136.83,431.99h-29.2c-0.92,0-1.69-0.69-1.79-1.61l-4.11-37.84c-0.12-1.07,0.72-2,1.79-2h37.43
						c1.07,0,1.91,0.93,1.79,2l-4.11,37.84C138.52,431.3,137.75,431.99,136.83,431.99z"/>
					<polygon class="st34" points="101.51,390.54 102.25,397.38 142.21,397.38 142.95,390.54 					"/>
					<path class="st33" d="M144.77,394.79H99.69c-1.24,0-2.24-1-2.24-2.24v-3.18c0-1.24,1-2.24,2.24-2.24h45.08
						c1.24,0,2.24,1,2.24,2.24v3.18C147.01,393.78,146.01,394.79,144.77,394.79z"/>
					<g>
						<path class="st35" d="M136.51,360.28l-6.23,4.29l0.39-7.55l-6-4.6l7.3-1.97l2.22-6.29c0.12-0.34,0.58-0.4,0.78-0.09l3.64,5.59
							l7.56,0.19l-4.75,5.88l2.15,7.25L136.51,360.28z"/>
						<path class="st31" d="M135.59,359.11l-6.23,4.29l0.39-7.55l-6-4.6l7.3-1.97l2.22-6.29c0.12-0.34,0.58-0.4,0.78-0.09l3.64,5.59
							l7.56,0.19l-4.75,5.88l2.15,7.25L135.59,359.11z"/>
						<path class="st6" d="M135.06,344.46l-0.19-1.76c-0.01-0.13-0.13-0.23-0.26-0.22l-0.05,0c0,0,0-0.01,0-0.01
							c-0.05-0.57-0.18-1.64-1.01-1.64c-0.84,0-0.78,1.22-0.73,1.79c0,0,0,0.01,0,0.01l-0.05,0c-0.13,0.01-0.23,0.13-0.22,0.26
							l0.12,1.77L135.06,344.46z M134.24,342.51l-0.54,0.05l-0.02,0l-0.54,0.05c0,0,0-0.01,0-0.01c-0.03-0.39-0.09-1.44,0.44-1.44
							S134.21,342.11,134.24,342.51C134.24,342.5,134.24,342.51,134.24,342.51z"/>
						<path class="st36" d="M134.77,343.76l-0.05-0.54c-0.03-0.27-0.25-0.49-0.53-0.49l-0.53-0.01c0,0-0.11,0.02-0.02,0.06
							c0.57,0.28,0.9,0.69,1.05,1.01C134.77,343.97,134.77,343.76,134.77,343.76z"/>
						<path class="st36" d="M135.18,346.33l1.91,2.73c0.17,0.21,0.42,0.33,0.69,0.35l3.88,0.18l-4.45,0.94
							c-0.47,0.1-0.93-0.17-1.09-0.62L135.18,346.33z"/>
						<path class="st37" d="M127.18,352.07l3.32,2.68c0.27,0.22,0.41,0.56,0.37,0.9l-0.62,5.55l2.43-6.15
							c0.21-0.54-0.07-1.14-0.62-1.33L127.18,352.07z"/>
					</g>
					<g>
						<path class="st35" d="M110.97,296.97l-7.12,1.72l4.34-7.79l-4.04-6.72l7.31,1.75l4.48-4.95c0.24-0.27-0.07-0.36,0,0l1.07,6.59
							l7.78,3.28l-5.79,3.21l-1.39,8.66L110.97,296.97z"/>
						<path class="st31" d="M111.47,295.31l-7.4,1.55l3.27-6.82l-3.76-6.56l7.5,1l4.48-4.95c0.24-0.27,0.69-0.14,0.76,0.22l1.2,6.56
							l6.9,3.09l-6.65,3.59l-0.81,7.52L111.47,295.31z"/>
						<path class="st6" d="M116.63,281.59l0.51-1.7c0.04-0.13-0.03-0.26-0.16-0.3l-0.05-0.02c0,0,0,0,0-0.01
							c0.17-0.54,0.47-1.58-0.3-1.9c-0.77-0.32-1.19,0.83-1.36,1.37c0,0,0,0.01,0,0.01l-0.05-0.02c-0.13-0.04-0.26,0.03-0.3,0.15
							l-0.57,1.68L116.63,281.59z M116.62,279.47l-0.52-0.17l-0.01,0l-0.52-0.17c0,0,0-0.01,0-0.01c0.12-0.37,0.48-1.36,0.96-1.16
							C117.01,278.17,116.75,279.09,116.62,279.47C116.63,279.47,116.63,279.47,116.62,279.47z"/>
						<path class="st36" d="M116.63,280.84l0.16-0.52c0.08-0.26-0.05-0.55-0.3-0.66l-0.49-0.22c0,0-0.1-0.03-0.04,0.04
							c0.42,0.48,0.57,0.99,0.58,1.34C116.55,281.03,116.63,280.84,116.63,280.84z"/>
						<path class="st36" d="M116.02,283.36l0.71,3.26c0.08,0.26,0.26,0.47,0.5,0.58l3.51,1.66l-4.47-0.85
							c-0.47-0.09-0.8-0.51-0.76-0.99L116.02,283.36z"/>
						<path class="st37" d="M106.42,285.57l2.02,3.76c0.16,0.3,0.16,0.67-0.01,0.97l-2.71,4.88l4.62-4.73
							c0.4-0.41,0.38-1.08-0.06-1.46L106.42,285.57z"/>
					</g>
					<g>
						<path class="st35" d="M145.92,237.19l-4.04,4.25l-0.47-7.12l-5.64-2.76l5.67-2l0.86-5.27c0.05-0.29-0.2-0.21,0,0l3.59,3.96
							l6.65-1.18l-2.49,4.67l2.83,6.42L145.92,237.19z"/>
						<path class="st31" d="M145.53,235.86l-4.3,4.26l-0.77-6l-5.38-2.77l5.47-2.58l0.86-5.27c0.05-0.29,0.4-0.4,0.6-0.18l3.66,3.89
							l5.98-0.92l-2.91,5.31l2.72,5.4L145.53,235.86z"/>
						<path class="st6" d="M143.04,224.4l-0.4-1.36c-0.03-0.1-0.13-0.16-0.24-0.13l-0.04,0.01c0,0,0,0,0-0.01
							c-0.12-0.44-0.37-1.27-1.03-1.15c-0.66,0.12-0.44,1.07-0.32,1.51c0,0,0,0,0,0.01l-0.04,0.01c-0.1,0.03-0.16,0.13-0.14,0.23
							l0.34,1.38L143.04,224.4z M142.12,222.98l-0.42,0.11l-0.01,0l-0.42,0.11c0,0,0,0,0-0.01c-0.08-0.3-0.27-1.12,0.14-1.2
							C141.81,221.93,142.03,222.67,142.12,222.98C142.12,222.98,142.12,222.98,142.12,222.98z"/>
						<path class="st36" d="M142.71,223.89l-0.12-0.42c-0.06-0.21-0.27-0.35-0.49-0.31l-0.42,0.07c0,0-0.08,0.03-0.01,0.05
							c0.49,0.14,0.81,0.42,0.97,0.65C142.74,224.06,142.71,223.89,142.71,223.89z"/>
						<path class="st36" d="M143.39,225.85l1.89,1.88c0.16,0.14,0.38,0.2,0.59,0.18l3.08-0.41l-3.37,1.37
							c-0.35,0.14-0.76,0-0.94-0.33L143.39,225.85z"/>
						<path class="st37" d="M137.91,231.51l2.99,1.64c0.24,0.13,0.4,0.38,0.42,0.65l0.3,4.45l1.04-5.19
							c0.09-0.45-0.22-0.89-0.67-0.96L137.91,231.51z"/>
					</g>
					<g>
						<path class="st35" d="M122.51,185.29l-5.22,1.41l3.05-5.84l-3.12-4.88l5.43,1.14l3.21-3.74c0.17-0.2-0.06-0.26,0,0l0.93,4.85
							l5.81,2.26l-4.21,2.49l-0.85,6.42L122.51,185.29z"/>
						<path class="st31" d="M122.85,184.06l-5.43,1.3l2.28-5.1l-2.91-4.77l5.55,0.59l3.21-3.74c0.17-0.2,0.51-0.12,0.56,0.14
							l1.02,4.82l5.16,2.14l-4.84,2.79l-0.45,5.57L122.85,184.06z"/>
						<path class="st6" d="M126.38,173.82l0.34-1.27c0.03-0.09-0.03-0.19-0.12-0.22l-0.04-0.01c0,0,0,0,0-0.01
							c0.12-0.41,0.31-1.18-0.26-1.4c-0.58-0.22-0.86,0.63-0.98,1.04c0,0,0,0,0,0.01l-0.03-0.01c-0.09-0.03-0.19,0.03-0.22,0.12
							l-0.39,1.25L126.38,173.82z M126.33,172.26l-0.39-0.11l-0.01,0l-0.39-0.11c0,0,0,0,0-0.01c0.08-0.28,0.32-1.02,0.68-0.88
							C126.59,171.29,126.41,171.98,126.33,172.26C126.33,172.26,126.33,172.26,126.33,172.26z"/>
						<path class="st36" d="M126.36,173.27l0.11-0.39c0.06-0.2-0.05-0.4-0.23-0.48l-0.36-0.15c0,0-0.08-0.02-0.03,0.03
							c0.32,0.34,0.44,0.72,0.45,0.98C126.31,173.41,126.36,173.27,126.36,173.27z"/>
						<path class="st36" d="M125.96,175.14l0.59,2.39c0.06,0.19,0.2,0.34,0.38,0.42l2.63,1.15l-3.32-0.54
							c-0.35-0.06-0.6-0.36-0.58-0.71L125.96,175.14z"/>
						<path class="st37" d="M118.92,176.97l1.57,2.73c0.13,0.22,0.13,0.49,0.02,0.72l-1.9,3.66l3.31-3.59
							c0.29-0.31,0.26-0.81-0.07-1.08L118.92,176.97z"/>
					</g>
					<g>
						<path class="st35" d="M180.4,343.47c1.12,3.59-0.88,7.41-4.47,8.54c-3.59,1.12-7.41-0.88-8.54-4.47
							c-1.12-3.59,0.88-7.41,4.47-8.54C175.45,337.88,179.27,339.88,180.4,343.47z"/>
						<path class="st4" d="M181.44,342.4c1.12,3.59-0.88,7.41-4.47,8.54c-3.59,1.12-7.41-0.88-8.54-4.47
							c-1.12-3.59,0.88-7.41,4.47-8.54C176.49,336.81,180.32,338.81,181.44,342.4z"/>
						<path class="st37" d="M174.27,348.93c-1.56-0.53-3.38-1.37-3.54-3.86c-0.3-2.2-1.76-1.92-1.26,0.59
							C170.87,350.65,175.66,349.41,174.27,348.93z"/>
						<path class="st36" d="M179.92,343.54c-0.46,0.99-1.02-0.61-2.2-1.52c-1.18-0.91-2.54-0.79-2.08-1.78
							c0.46-0.99,1.79-1.06,2.98-0.15C179.79,341.01,180.38,342.55,179.92,343.54z"/>
						<g>
							<g>
								<g>
									<g>
										<path class="st31" d="M172.95,338.14c-0.8,0.25-1.69-0.43-2.04-1.54c-0.35-1.11,0-2.17,0.8-2.42
											c0.8-0.25,1.69,0.43,2.04,1.54C174.1,336.83,173.75,337.89,172.95,338.14z M171.87,334.68c-0.5,0.16-0.71,0.97-0.46,1.77
											c0.25,0.8,0.88,1.35,1.38,1.19c0.5-0.16,0.71-0.97,0.46-1.77C173,335.07,172.37,334.52,171.87,334.68z"/>
									</g>
								</g>
								<path class="st31" d="M174.7,337.63l-0.48-1.53c-0.05-0.17-0.23-0.26-0.4-0.21c-1.08,0.13-2.03,0.42-2.83,0.89
									c-0.17,0.05-0.26,0.23-0.21,0.4l0.48,1.53C172.51,338.64,173.66,338.26,174.7,337.63z"/>
							</g>
						</g>
						<path class="st36" d="M174.21,337.17l-0.15-0.52c-0.08-0.27-0.34-0.43-0.61-0.39l-0.52,0.09c0,0-0.1,0.03-0.01,0.06
							c0.61,0.17,1.01,0.52,1.22,0.8C174.25,337.37,174.21,337.17,174.21,337.17z"/>
					</g>
					<g>
						<path class="st35" d="M87.27,337.98c-0.84,3.67-4.49,5.96-8.16,5.12c-3.67-0.84-5.96-4.49-5.12-8.16
							c0.84-3.67,4.49-5.96,8.16-5.12C85.82,330.66,88.11,334.31,87.27,337.98z"/>
						<path class="st4" d="M87.79,338.72c-1.74,3.33-5.86,4.62-9.19,2.88c-3.33-1.74-4.62-5.86-2.88-9.19
							c1.74-3.33,5.86-4.62,9.19-2.88C88.24,331.27,89.53,335.39,87.79,338.72z"/>
						<path class="st37" d="M78.09,338.27c-0.73-1.48-1.42-3.36,0.23-5.24c1.35-1.77,0.12-2.6-1.31-0.47
							C74.47,337.08,78.74,339.59,78.09,338.27z"/>
						<path class="st36" d="M85.9,338.45c-1.03,0.38-0.29-1.15-0.49-2.63c-0.19-1.48-1.24-2.36-0.21-2.73
							c1.03-0.38,2.02,0.52,2.21,2C87.6,336.57,86.93,338.08,85.9,338.45z"/>
						<g>
							<g>
								<g>
									<g>
										<path class="st31" d="M84.8,329.71c-0.74-0.39-0.9-1.5-0.36-2.53c0.54-1.03,1.54-1.54,2.28-1.15
											c0.74,0.39,0.9,1.5,0.36,2.53C86.54,329.59,85.54,330.09,84.8,329.71z M86.48,326.5c-0.46-0.24-1.18,0.18-1.57,0.93
											c-0.39,0.75-0.33,1.58,0.14,1.82c0.46,0.24,1.18-0.18,1.57-0.93C87,327.57,86.94,326.74,86.48,326.5z"/>
									</g>
								</g>
								<path class="st31" d="M86.39,330.58l0.74-1.42c0.08-0.15,0.02-0.35-0.13-0.43c-0.86-0.67-1.73-1.13-2.63-1.38
									c-0.16-0.08-0.35-0.02-0.43,0.13l-0.74,1.42C84.13,329.75,85.21,330.29,86.39,330.58z"/>
							</g>
						</g>
						<path class="st36" d="M86.37,329.91l0.26-0.47c0.13-0.24,0.07-0.54-0.16-0.71l-0.43-0.31c0,0-0.1-0.05-0.05,0.03
							c0.31,0.55,0.35,1.08,0.29,1.43C86.26,330.08,86.37,329.91,86.37,329.91z"/>
					</g>
					<g>
						<path class="st35" d="M158.99,278.3c2.33,2.96,1.81,7.24-1.14,9.57c-2.96,2.33-7.24,1.81-9.57-1.14
							c-2.33-2.96-1.81-7.24,1.14-9.57C152.38,274.83,156.67,275.34,158.99,278.3z"/>
						
							<ellipse transform="matrix(0.5873 -0.8093 0.8093 0.5873 -163.6287 241.0856)" class="st4" cx="154.6" cy="281" rx="6.81" ry="6.81"/>
						<path class="st37" d="M154.41,285.55c-1.61-0.36-3.5-1-3.93-3.47c-0.53-2.16-1.95-1.72-1.19,0.72
							C151.22,287.62,155.85,285.88,154.41,285.55z"/>
						<path class="st36" d="M159.46,279.59c-0.35,1.04-1.08-0.49-2.35-1.28c-1.27-0.78-2.61-0.52-2.26-1.55
							c0.35-1.04,1.67-1.24,2.94-0.46C159.07,277.09,159.81,278.56,159.46,279.59z"/>
						<g>
							<g>
								<g>
									<g>
										<path class="st31" d="M151.96,274.96c-0.76,0.33-1.73-0.24-2.19-1.31c-0.46-1.07-0.23-2.16,0.54-2.49
											c0.76-0.33,1.73,0.24,2.19,1.31C152.96,273.53,152.73,274.63,151.96,274.96z M150.52,271.63
											c-0.48,0.21-0.6,1.04-0.27,1.81c0.33,0.77,1.02,1.25,1.5,1.04c0.48-0.21,0.6-1.04,0.27-1.81
											C151.69,271.9,151,271.42,150.52,271.63z"/>
									</g>
								</g>
								<path class="st31" d="M153.64,274.27l-0.64-1.47c-0.07-0.16-0.26-0.23-0.42-0.16c-1.06,0.25-1.97,0.64-2.72,1.18
									c-0.16,0.07-0.23,0.26-0.16,0.42l0.64,1.47C151.58,275.5,152.68,275.01,153.64,274.27z"/>
							</g>
						</g>
						<path class="st36" d="M153.11,273.86l-0.2-0.5c-0.1-0.26-0.38-0.39-0.65-0.32l-0.51,0.14c0,0-0.1,0.04,0,0.06
							c0.63,0.1,1.06,0.41,1.29,0.67C153.17,274.06,153.11,273.86,153.11,273.86z"/>
					</g>
					<g>
						<path class="st35" d="M105.62,230.97c0.09,3.76-2.89,6.88-6.65,6.97c-3.76,0.09-6.88-2.89-6.97-6.65
							c-0.09-3.76,2.89-6.88,6.65-6.97C102.41,224.23,105.53,227.21,105.62,230.97z"/>
						<path class="st4" d="M106.29,231.57c-0.87,3.66-4.55,5.92-8.21,5.05c-3.66-0.87-5.92-4.55-5.05-8.21
							c0.87-3.66,4.55-5.92,8.21-5.05C104.91,224.23,107.17,227.91,106.29,231.57z"/>
						<path class="st37" d="M96.79,233.51c-1.07-1.25-2.2-2.9-1.07-5.13c0.87-2.04-0.53-2.55-1.38-0.14
							C92.99,233.25,97.74,234.63,96.79,233.51z"/>
						<path class="st36" d="M104.4,231.77c-0.9,0.62-0.57-1.04-1.12-2.43c-0.55-1.39-1.78-1.98-0.88-2.6
							c0.9-0.62,2.08,0.01,2.63,1.4C105.59,229.53,105.3,231.15,104.4,231.77z"/>
						<g>
							<g>
								<g>
									<g>
										<path class="st31" d="M101.18,223.56c-0.81-0.19-1.24-1.23-0.97-2.36c0.27-1.13,1.12-1.87,1.93-1.67
											c0.81,0.19,1.24,1.23,0.97,2.36C102.84,223.02,101.99,223.76,101.18,223.56z M102.02,220.04c-0.51-0.12-1.1,0.47-1.3,1.29
											c-0.2,0.82,0.07,1.61,0.58,1.73c0.51,0.12,1.1-0.47,1.3-1.29C102.8,220.95,102.53,220.16,102.02,220.04z"/>
									</g>
								</g>
								<path class="st31" d="M102.94,224.02l0.37-1.56c0.04-0.17-0.06-0.34-0.23-0.38c-1-0.44-1.96-0.67-2.89-0.69
									c-0.17-0.04-0.34,0.06-0.38,0.23l-0.37,1.56C100.55,223.76,101.72,224.03,102.94,224.02z"/>
							</g>
						</g>
						<path class="st36" d="M102.76,223.37l0.14-0.52c0.07-0.27-0.07-0.54-0.33-0.65l-0.49-0.19c0,0-0.1-0.02-0.04,0.05
							c0.44,0.46,0.61,0.96,0.63,1.31C102.69,223.57,102.76,223.37,102.76,223.37z"/>
					</g>
					<g>
						<path class="st6" d="M199.12,322.36c-5.94,1.72-12.01,3.04-18.17,3.91c-6.17,0.79-12.41,1.18-18.65,1.04
							c-6.25-0.09-12.49-0.79-18.64-1.85c-6.15-1.09-12.21-2.64-18.17-4.41c-5.94-1.83-11.79-3.89-17.57-6.01
							c-5.77-2.16-11.52-4.26-17.29-6.19c-5.79-1.88-11.63-3.54-17.62-4.44c-5.97-0.96-12.07-1.16-18.18-0.58
							c-0.22,0.02-0.41-0.14-0.43-0.35c-0.02-0.2,0.11-0.38,0.3-0.42c6.05-1.43,12.37-1.75,18.61-1.28
							c6.25,0.48,12.41,1.8,18.39,3.47c12,3.33,23.43,7.93,35.11,11.39c5.82,1.8,11.7,3.31,17.64,4.49c5.94,1.23,11.95,1.98,18,2.4
							c6.05,0.39,12.13,0.41,18.22,0.06c6.09-0.35,12.16-1.16,18.24-2.06l0.01,0c0.24-0.03,0.45,0.13,0.49,0.36
							C199.46,322.1,199.33,322.3,199.12,322.36z"/>
					</g>
					<g>
						<path class="st6" d="M162.04,216.84c-6.47,0.69-13.11,0.04-19.44-1.39c-3.18-0.68-6.29-1.57-9.37-2.43
							c-3.07-0.88-6.1-1.85-9.14-2.61l-2.27-0.63l-2.27-0.55c-1.51-0.41-3.04-0.65-4.57-0.96c-1.52-0.36-3.06-0.52-4.6-0.74
							c-1.54-0.25-3.09-0.32-4.64-0.47c-6.21-0.45-12.5-0.09-18.89,0.51l-0.01,0c-0.17,0.02-0.31-0.11-0.33-0.27
							c-0.01-0.14,0.07-0.27,0.2-0.31c6.08-2.12,12.55-3.38,19.11-3.52c1.64-0.02,3.29-0.09,4.92,0.09c1.64,0.13,3.29,0.2,4.9,0.47
							c1.63,0.22,3.25,0.48,4.84,0.84l2.4,0.5c0.79,0.18,1.58,0.39,2.37,0.59c1.58,0.41,3.13,0.86,4.67,1.32
							c1.55,0.46,3.08,0.91,4.6,1.4l4.54,1.44l4.52,1.38c6.02,1.79,12.12,3.06,18.43,3.75c0.44,0.05,0.76,0.44,0.71,0.88
							C162.71,216.51,162.4,216.8,162.04,216.84z"/>
					</g>
					<g>
						<path class="st6" d="M122.09,365.58c-8.37,0.74-16.87-0.8-24.86-3.25c-4.02-1.2-7.92-2.72-11.79-4.27
							c-3.85-1.59-7.62-3.32-11.38-5.04l-11.17-5.27c-3.7-1.78-7.44-3.42-11.18-5.01c-7.52-3.09-15.24-5.68-23.42-6.49
							c-0.23-0.02-0.4-0.23-0.38-0.46c0.02-0.21,0.18-0.36,0.38-0.38c4.17-0.4,8.41-0.05,12.56,0.64c4.15,0.73,8.22,1.84,12.18,3.18
							c3.98,1.3,7.83,2.91,11.67,4.51c3.81,1.65,7.56,3.39,11.32,5.09c3.72,1.76,7.45,3.47,11.19,5.13
							c3.72,1.69,7.5,3.22,11.29,4.68c7.6,2.84,15.43,5.03,23.61,5.77c0.32,0.03,0.56,0.31,0.53,0.64
							C122.6,365.34,122.37,365.56,122.09,365.58z"/>
					</g>
					<g>
						<path class="st6" d="M99.37,170.83c3.27,0.19,6.46-0.5,9.79-1.38c3.32-0.9,6.74-1.96,10.29-2.71
							c3.55-0.77,7.24-1.24,10.95-1.16c3.7,0.07,7.38,0.68,10.82,1.91c0.35,0.12,0.53,0.5,0.4,0.85c-0.1,0.27-0.35,0.44-0.62,0.44
							l-0.02,0c-3.56,0-6.99,0.11-10.39,0.51c-3.4,0.39-6.74,1.12-10.1,1.94c-3.37,0.82-6.77,1.76-10.38,2.43
							c-1.82,0.31-3.67,0.57-5.59,0.55c-1.9,0.05-3.89-0.31-5.72-0.93c-0.66-0.23-1.02-0.95-0.79-1.61
							c0.19-0.55,0.72-0.89,1.27-0.86L99.37,170.83z"/>
					</g>
					<circle class="st3" cx="108.69" cy="178.25" r="1.83"/>
					<circle class="st3" cx="121.64" cy="199.85" r="1.83"/>
					<circle class="st3" cx="136.73" cy="219.92" r="1.83"/>
					<circle class="st3" cx="76.66" cy="276.58" r="1.83"/>
					<circle class="st3" cx="51.21" cy="352.45" r="1.83"/>
					<path class="st3" d="M163.71,358.38c0,1.01-0.82,1.83-1.83,1.83c-1.01,0-1.83-0.82-1.83-1.83c0-1.01,0.82-1.83,1.83-1.83
						C162.89,356.55,163.71,357.37,163.71,358.38z"/>
					<circle class="st3" cx="105.07" cy="332.27" r="1.83"/>
					<path class="st3" d="M172.29,293.8c0,1.01-0.82,1.83-1.83,1.83c-1.01,0-1.83-0.82-1.83-1.83c0-1.01,0.82-1.83,1.83-1.83
						C171.47,291.97,172.29,292.79,172.29,293.8z"/>
					<path class="st3" d="M135.4,192.23c0,0.53-0.43,0.96-0.96,0.96s-0.96-0.43-0.96-0.96s0.43-0.96,0.96-0.96
						S135.4,191.7,135.4,192.23z"/>
					<path class="st3" d="M127.41,237.13c0,0.53-0.43,0.96-0.96,0.96c-0.53,0-0.96-0.43-0.96-0.96c0-0.53,0.43-0.96,0.96-0.96
						C126.98,236.17,127.41,236.6,127.41,237.13z"/>
					<path class="st3" d="M135.99,272.94c0,0.53-0.43,0.96-0.96,0.96c-0.53,0-0.96-0.43-0.96-0.96c0-0.53,0.43-0.96,0.96-0.96
						C135.56,271.98,135.99,272.41,135.99,272.94z"/>
					<path class="st3" d="M90.27,292.91c0,0.53-0.43,0.96-0.96,0.96c-0.53,0-0.96-0.43-0.96-0.96c0-0.53,0.43-0.96,0.96-0.96
						C89.84,291.95,90.27,292.38,90.27,292.91z"/>
					<path class="st3" d="M66.67,326.87c0,0.53-0.43,0.96-0.96,0.96s-0.96-0.43-0.96-0.96c0-0.53,0.43-0.96,0.96-0.96
						S66.67,326.34,66.67,326.87z"/>
					<path class="st3" d="M164.77,329.09c0,0.53-0.43,0.96-0.96,0.96c-0.53,0-0.96-0.43-0.96-0.96c0-0.53,0.43-0.96,0.96-0.96
						C164.34,328.13,164.77,328.56,164.77,329.09z"/>
					<path class="st3" d="M117.57,353.8c0,0.53-0.43,0.96-0.96,0.96s-0.96-0.43-0.96-0.96c0-0.53,0.43-0.96,0.96-0.96
						S117.57,353.27,117.57,353.8z"/>
					<path class="st3" d="M97.45,215.24c0,0.53-0.43,0.96-0.96,0.96c-0.53,0-0.96-0.43-0.96-0.96c0-0.53,0.43-0.96,0.96-0.96
						C97.02,214.28,97.45,214.71,97.45,215.24z"/>
					<g>
						<defs>
							<path id="SVGID_11_" d="M145.23,387.13H99.23c-0.98,0-1.78,0.79-1.78,1.78v4.11c0,0.98,0.79,1.78,1.78,1.78h2.74l3.87,35.6
								c0.1,0.91,0.87,1.61,1.79,1.61h29.2c0.92,0,1.69-0.69,1.79-1.61l3.87-35.6h2.74c0.98,0,1.78-0.79,1.78-1.78v-4.11
								C147.01,387.92,146.21,387.13,145.23,387.13z"/>
						</defs>
						<clipPath id="SVGID_12_">
							<use xlink:href="#SVGID_11_"  style="overflow:visible;"/>
						</clipPath>
						<path class="st38" d="M120.9,386.64c0,0,5.69,14.93,28.66,25.59V385.8L120.9,386.64z"/>
						<path class="st38" d="M120.87,386.61c0,0-12.39,15.93-18.44,15.93l-11.57-15.93H120.87z"/>
					</g>
				</g>
				<g>
					<rect x="219.47" y="418.99" class="st12" width="45.07" height="13.7"/>
					<g>
						<g>
							<path class="st3" d="M224.36,424.01c0,0.37-0.3,0.66-0.66,0.66c-0.37,0-0.66-0.3-0.66-0.66s0.3-0.66,0.66-0.66
								C224.06,423.34,224.36,423.64,224.36,424.01z"/>
							<path class="st3" d="M236.57,424.01c0,0.37-0.3,0.66-0.66,0.66c-0.37,0-0.66-0.3-0.66-0.66s0.3-0.66,0.66-0.66
								C236.27,423.34,236.57,423.64,236.57,424.01z"/>
							<path class="st3" d="M248.78,424.01c0,0.37-0.3,0.66-0.66,0.66s-0.66-0.3-0.66-0.66s0.3-0.66,0.66-0.66
								S248.78,423.64,248.78,424.01z"/>
							<path class="st3" d="M260.98,424.01c0,0.37-0.3,0.66-0.66,0.66c-0.37,0-0.66-0.3-0.66-0.66s0.3-0.66,0.66-0.66
								C260.69,423.34,260.98,423.64,260.98,424.01z"/>
						</g>
						<g>
							<path class="st3" d="M230.46,427.19c0,0.37-0.3,0.66-0.66,0.66c-0.37,0-0.66-0.3-0.66-0.66s0.3-0.66,0.66-0.66
								C230.17,426.53,230.46,426.82,230.46,427.19z"/>
							<path class="st3" d="M242.67,427.19c0,0.37-0.3,0.66-0.66,0.66c-0.37,0-0.66-0.3-0.66-0.66s0.3-0.66,0.66-0.66
								C242.38,426.53,242.67,426.82,242.67,427.19z"/>
							<path class="st3" d="M254.88,427.19c0,0.37-0.3,0.66-0.66,0.66s-0.66-0.3-0.66-0.66s0.3-0.66,0.66-0.66
								S254.88,426.82,254.88,427.19z"/>
						</g>
						<g>
							<path class="st3" d="M224.36,430.37c0,0.37-0.3,0.66-0.66,0.66c-0.37,0-0.66-0.3-0.66-0.66c0-0.37,0.3-0.66,0.66-0.66
								C224.06,429.71,224.36,430.01,224.36,430.37z"/>
							<path class="st3" d="M236.57,430.37c0,0.37-0.3,0.66-0.66,0.66c-0.37,0-0.66-0.3-0.66-0.66c0-0.37,0.3-0.66,0.66-0.66
								C236.27,429.71,236.57,430.01,236.57,430.37z"/>
							<path class="st3" d="M248.78,430.37c0,0.37-0.3,0.66-0.66,0.66s-0.66-0.3-0.66-0.66c0-0.37,0.3-0.66,0.66-0.66
								S248.78,430.01,248.78,430.37z"/>
							<path class="st3" d="M260.98,430.37c0,0.37-0.3,0.66-0.66,0.66c-0.37,0-0.66-0.3-0.66-0.66c0-0.37,0.3-0.66,0.66-0.66
								C260.69,429.71,260.98,430.01,260.98,430.37z"/>
						</g>
					</g>
					<polygon class="st14" points="219.47,418.99 219.47,422.51 264.44,423.5 264.55,418.99 					"/>
					<rect x="218.36" y="416.88" class="st12" width="47.47" height="4.31"/>
				</g>
				<g>
					<g>
						<g>
							<g>
								<g>
									<path class="st39" d="M49.94,399.66c0,0,1.66,7.32-6.63,7.32h4c0,0,6.56-0.07,6.56-6.14L49.94,399.66z"/>
									<path class="st6" d="M43.31,406.98c0,0-0.87-4.28,5.52-7.32c0.67-0.32,1.46-0.34,2.15-0.05l2.9,1.22c0,0-6.08,2-8.56,6.14
										H43.31z"/>
								</g>
								<g>
									<path class="st39" d="M36.69,399.66c0,0-1.66,7.32,6.63,7.32h-4c0,0-6.56-0.07-6.56-6.14L36.69,399.66z"/>
									<path class="st6" d="M43.32,406.98c0,0,0.87-4.28-5.52-7.32c-0.67-0.32-1.46-0.34-2.15-0.05l-2.9,1.22
										c0,0,6.08,2,8.56,6.14H43.32z"/>
								</g>
								<path class="st40" d="M43.84,404.09c-0.31,0.66-0.46,1.25-0.52,1.73c-0.06-0.48-0.21-1.07-0.52-1.73
									c-0.7,0.35-1.04,1.37-1.04,2.59c0,0.1,0.01,0.2,0.02,0.3h1.54h0.01h1.52c0.01-0.1,0.02-0.2,0.02-0.3
									C44.86,405.45,44.54,404.43,43.84,404.09z"/>
							</g>
							<path class="st39" d="M44.66,406.67c0,1.17-0.6,2.11-1.35,2.11c-0.74,0-1.35-0.94-1.35-2.11s0.6-2.11,1.35-2.11
								C44.06,404.56,44.66,405.51,44.66,406.67z"/>
						</g>
					</g>
					<polygon class="st4" points="57.07,439.35 30.5,439.35 32.24,406.98 55.33,406.98 					"/>
					<polygon class="st18" points="55.38,407.94 32.19,407.94 31.98,411.88 55.59,411.88 					"/>
					<rect x="30.82" y="406.98" class="st41" width="25.58" height="3.94"/>
					<g>
						<defs>
							<polygon id="SVGID_13_" points="57.07,439.35 30.5,439.35 32.24,406.98 55.33,406.98 							"/>
						</defs>
						<clipPath id="SVGID_14_">
							<use xlink:href="#SVGID_13_"  style="overflow:visible;"/>
						</clipPath>
						<line class="st42" x1="27.46" y1="418.23" x2="62.75" y2="418.23"/>
						<line class="st42" x1="27.46" y1="422.01" x2="62.75" y2="422.01"/>
						<line class="st42" x1="27.46" y1="425.78" x2="62.75" y2="425.78"/>
						<line class="st42" x1="27.46" y1="429.55" x2="62.75" y2="429.55"/>
					</g>
					<rect x="40.88" y="406.98" class="st6" width="4.86" height="32.38"/>
				</g>
				<g>
					<g>
						<g>
							<g>
								<g>
									<path class="st4" d="M150.1,400h-2.2c-0.48,0-0.87,0.38-0.89,0.86c-0.04,1.37,0.06,4.89,1.22,7.92h1.53
										c1.16-3.02,1.26-6.55,1.22-7.92C150.98,400.37,150.58,400,150.1,400z"/>
									<path class="st43" d="M149.08,406.75c-0.13-0.96-0.58-2.38-2.02-3.82c0.11,1.66,0.41,3.86,1.17,5.84h0.84h0.01h0.68
										c0.73-1.91,1.04-4.02,1.16-5.66C149.63,404.49,149.2,405.83,149.08,406.75z"/>
									<g>
										<path class="st9" d="M155.83,401.31c0,0,1.69,7.46-6.75,7.46h4.08c0,0,6.68-0.07,6.68-6.26L155.83,401.31z"/>
										<path class="st4" d="M149.08,408.77c0,0-0.89-4.36,5.62-7.46c0.69-0.33,1.49-0.35,2.19-0.05l2.96,1.24
											c0,0-6.19,2.04-8.72,6.26H149.08z"/>
									</g>
									<g>
										<path class="st9" d="M142.33,401.31c0,0-1.69,7.46,6.75,7.46h-4.08c0,0-6.68-0.07-6.68-6.26L142.33,401.31z"/>
										<path class="st4" d="M149.09,408.77c0,0,0.89-4.36-5.62-7.46c-0.69-0.33-1.49-0.35-2.19-0.05l-2.96,1.24
											c0,0,6.19,2.04,8.72,6.26H149.09z"/>
									</g>
									<path class="st9" d="M149.62,405.82c-0.32,0.67-0.47,1.27-0.53,1.76c-0.06-0.49-0.21-1.09-0.53-1.76
										c-0.72,0.36-1.06,1.4-1.06,2.64c0,0.11,0.01,0.21,0.02,0.31h1.57h0.01h1.55c0.01-0.1,0.02-0.2,0.02-0.31
										C150.66,407.21,150.33,406.18,149.62,405.82z"/>
								</g>
								<path class="st11" d="M150.46,408.46c0,1.19-0.61,2.15-1.37,2.15c-0.76,0-1.37-0.96-1.37-2.15c0-1.19,0.61-2.15,1.37-2.15
									C149.84,406.31,150.46,407.27,150.46,408.46z"/>
							</g>
						</g>
						<rect x="135.03" y="408.76" class="st12" width="58.11" height="28.56"/>
						<g>
							<path class="st3" d="M149.56,417.27c0,0.49-0.4,0.89-0.89,0.89c-0.49,0-0.89-0.4-0.89-0.89s0.4-0.89,0.89-0.89
								C149.17,416.38,149.56,416.78,149.56,417.27z"/>
							<path class="st3" d="M165.91,417.27c0,0.49-0.4,0.89-0.89,0.89c-0.49,0-0.89-0.4-0.89-0.89s0.4-0.89,0.89-0.89
								C165.52,416.38,165.91,416.78,165.91,417.27z"/>
							<circle class="st3" cx="140.5" cy="429.63" r="0.89"/>
							<path class="st3" d="M157.74,429.63c0,0.49-0.4,0.89-0.89,0.89c-0.49,0-0.89-0.4-0.89-0.89c0-0.49,0.4-0.89,0.89-0.89
								C157.34,428.74,157.74,429.14,157.74,429.63z"/>
							<path class="st3" d="M141.39,412.02c0,0.49-0.4,0.89-0.89,0.89s-0.89-0.4-0.89-0.89c0-0.49,0.4-0.89,0.89-0.89
								S141.39,411.53,141.39,412.02z"/>
							<path class="st3" d="M157.74,412.02c0,0.49-0.4,0.89-0.89,0.89c-0.49,0-0.89-0.4-0.89-0.89c0-0.49,0.4-0.89,0.89-0.89
								C157.34,411.13,157.74,411.53,157.74,412.02z"/>
							<path class="st3" d="M174.09,412.02c0,0.49-0.4,0.89-0.89,0.89c-0.49,0-0.89-0.4-0.89-0.89c0-0.49,0.4-0.89,0.89-0.89
								C173.69,411.13,174.09,411.53,174.09,412.02z"/>
							<circle class="st3" cx="148.68" cy="434.36" r="0.89"/>
							<circle class="st3" cx="165.03" cy="434.36" r="0.89"/>
							<path class="st3" d="M182.3,417.27c0,0.49-0.4,0.89-0.89,0.89c-0.49,0-0.89-0.4-0.89-0.89s0.4-0.89,0.89-0.89
								C181.9,416.38,182.3,416.78,182.3,417.27z"/>
							<circle class="st3" cx="189.59" cy="429.63" r="0.89"/>
							<path class="st3" d="M190.47,412.02c0,0.49-0.4,0.89-0.89,0.89c-0.49,0-0.89-0.4-0.89-0.89c0-0.49,0.4-0.89,0.89-0.89
								C190.08,411.13,190.47,411.53,190.47,412.02z"/>
							<path class="st3" d="M182.3,434.36c0,0.49-0.4,0.89-0.89,0.89c-0.49,0-0.89-0.4-0.89-0.89c0-0.49,0.4-0.89,0.89-0.89
								C181.9,433.47,182.3,433.87,182.3,434.36z"/>
						</g>
						<rect x="135.03" y="419.82" class="st4" width="58.11" height="6.44"/>
						<rect x="145.87" y="408.75" class="st4" width="6.44" height="28.57"/>
						<polygon class="st12" points="168.22,415.72 169.99,437.32 193.14,437.32 193.14,416.1 						"/>
					</g>
					<g>
						<polygon class="st44" points="205.16,416.98 170.51,416.98 172.29,437.32 201.98,437.32 						"/>
						<path class="st45" d="M170.51,416.98l13.18,12.91c1.44,1.41,3.72,1.52,5.28,0.25l16.19-13.15"/>
						<path class="st45" d="M170.51,416.98l12.22,10.72c2.04,1.79,5.05,1.93,7.24,0.33l15.19-11.05H170.51z"/>
					</g>
				</g>
			</g>
		</g>
	</g>
</g>
</svg>
